<?xml version="1.0" encoding="iso-8859-1"?>
<!-- Generator: Adobe Illustrator 16.0.0, SVG Export Plug-In . SVG Version: 6.00 Build 0)  -->
<!DOCTYPE svg PUBLIC "-//W3C//DTD SVG 1.1//EN" "http://www.w3.org/Graphics/SVG/1.1/DTD/svg11.dtd">
<svg version="1.1" id="Capa_1" xmlns="http://www.w3.org/2000/svg" xmlns:xlink="http://www.w3.org/1999/xlink" x="0px" y="0px"
	 width="416.637px" height="416.636px" viewBox="0 0 416.637 416.636" style="enable-background:new 0 0 416.637 416.636;"
	 xml:space="preserve">
<g>
	<g>
		<path style="fill:#231F20;" d="M75.295,162.302c-19.175-9.576-37.906-7.386-55.247,5.268l-2.768,2.128l-3.586,0.509
			c0,0-5.674,0.852-8.512,1.289l5.522,5.174l-1.881,2.738C3.197,187.733,0.009,196.922,0,206.944
			c-0.028,21.517,9.459,37.878,28.678,47.443c19.267,9.582,38.045,7.244,55.504-5.451l2.539-1.742l12.545-2.15l-6.012-5.301
			c7.07-9.575,10.778-19.727,10.625-30.924C103.596,187.746,94.123,171.713,75.295,162.302z M90.557,233.099
			c-0.41,0.629-0.874,1.219-1.689,2.338l-4.792-4.714l-1.716,12.061l-2.399,1.8c-15.193,10.829-31.492,12.873-48.212,4.668
			c-16.592-8.139-25.246-22.044-25.732-40.682c-0.245-9.297,2.488-17.78,7.619-25.507c0.315-0.476,0.711-1.144,1.621-2.275
			l4.548,5.064c0.487-3.227,0.843-6.482,1.522-9.666l0.439-2.191l1.535-1.347c17.205-14.164,42.758-13.224,59.831,2.116
			C99.49,189.466,102.697,214.626,90.557,233.099z"/>
		<path style="fill:#231F20;" d="M61.424,218.477c0.829-3.608,1.728-7.206,2.478-10.835c0.49-2.376-0.33-3.626-2.154-3.697
			c-2.337-0.083-4.61,1.614-5.15,3.9c-0.87,3.687-1.67,7.393-2.618,11.058l-0.411,1.714l-8.119,0.026
			c0.178-0.819,0.265-1.215,0.357-1.607c0.855-3.692,1.758-7.373,2.555-11.078c0.552-2.554-0.2-3.9-2.062-4.01
			c-2.269-0.134-4.628,1.614-5.156,3.837c-0.871,3.687-1.674,7.4-2.622,11.065l-0.445,1.794l-8.134,0.006
			c1.389-6.087,2.672-11.702,3.988-17.469c-4.438,0-8.617,0-12.75,0c-2.892,12.195,4.11,30.026,22.072,35.146
			c18.311,5.231,33.569-6.716,37.228-17.64c-6.444,0-12.804,0-19.49,0C61.202,219.615,61.293,219.043,61.424,218.477z"/>
		<path style="fill:#231F20;" d="M56.111,177.4c-14.89-2.23-30.553,7.066-33.435,19.249l20.658-0.006l-0.019,1.233
			c6.999-3.49,10.135-1.837,13.925,1.791c0.885-0.614,1.735-1.302,2.67-1.847c3.339-1.972,6.85-2.69,10.231-0.344
			c3.253,2.25,2.843,5.618,2.094,8.948c-0.569,2.525-1.122,5.047-1.714,7.704c4.205,0,8.14,0,12.182,0
			C86.135,196.478,74.153,180.094,56.111,177.4z"/>
		<path style="fill:#231F20;" d="M154.179,190.937c-1.122-0.781-2.281-1.302-3.448-1.562c-1.163-0.261-2.069-0.382-2.768-0.382
			c-2.563,0-4.747,0.521-6.491,1.55c-1.553,0.922-2.924,2.16-4.076,3.693c-1.049-1.771-2.336-3.088-3.829-3.902
			c-3.454-1.88-7.313-1.671-10.923-0.102c-1.605,0.707-3,1.882-4.156,3.528v-3.731h-5.825v31.035h5.825v-17.831
			c0-1.437,0.226-2.703,0.667-3.762c0.442-1.056,1.052-1.951,1.805-2.657c0.759-0.712,1.639-1.251,2.615-1.613
			c1.677-0.623,3.583-0.751,5.348-0.224c0.702,0.209,1.327,0.574,1.864,1.088c0.538,0.515,0.976,1.207,1.299,2.071
			c0.333,0.865,0.499,1.981,0.499,3.317v19.612h5.825v-18.695c0-1.353,0.223-2.529,0.664-3.49c0.439-0.958,1.039-1.754,1.792-2.364
			c0.754-0.617,1.636-1.086,2.615-1.398c1.684-0.527,3.6-0.668,5.366-0.141c0.703,0.209,1.328,0.574,1.862,1.088
			c0.538,0.515,0.976,1.207,1.302,2.071c0.331,0.865,0.499,1.981,0.499,3.317v19.611h5.824v-20.994c0-2.37-0.413-4.308-1.23-5.77
			C156.296,192.849,155.309,191.718,154.179,190.937z"/>
		<rect x="163.324" y="178.723" style="fill:#231F20;" width="5.824" height="7.162"/>
		<rect x="163.324" y="190.027" style="fill:#231F20;" width="5.824" height="31.035"/>
		<path style="fill:#231F20;" d="M195.618,209.491c-0.541,2.449-1.42,4.239-2.602,5.327c-1.166,1.079-2.866,1.625-5.057,1.625
			c-1.533,0-2.87-0.278-3.972-0.826c-1.103-0.544-2.023-1.302-2.729-2.241c-0.721-0.954-1.258-2.107-1.61-3.438
			c-0.36-1.341-0.538-2.823-0.538-4.392c0-1.577,0.178-3.058,0.538-4.398c0.352-1.321,0.89-2.478,1.61-3.43
			c0.712-0.948,1.627-1.703,2.729-2.25c1.104-0.542,2.444-0.82,3.972-0.82c2.227,0,3.994,0.533,5.251,1.577
			c1.249,1.048,2.027,2.515,2.307,4.363l0.054,0.344h6.126l-0.065-0.464c-0.277-1.924-0.815-3.627-1.627-5.045
			c-0.806-1.424-1.843-2.63-3.081-3.584c-1.233-0.946-2.667-1.671-4.265-2.141c-1.582-0.47-3.278-0.706-5.046-0.706
			c-2.421,0-4.569,0.446-6.389,1.334c-1.815,0.889-3.35,2.109-4.57,3.629c-1.206,1.512-2.131,3.304-2.748,5.324
			c-0.61,2.008-0.918,4.175-0.918,6.437c0,1.99,0.267,3.972,0.792,5.905c0.527,1.941,1.375,3.715,2.516,5.269
			c1.15,1.562,2.686,2.842,4.55,3.78c1.869,0.954,4.163,1.437,6.818,1.437c1.729,0,3.35-0.216,4.817-0.625
			c1.481-0.417,2.841-1.137,4.032-2.128c1.179-0.988,2.224-2.295,3.095-3.863c0.868-1.557,1.579-3.514,2.118-5.814l0.116-0.5h-6.143
			L195.618,209.491z"/>
		<path style="fill:#231F20;" d="M221.491,189.042c-0.422-0.039-0.96-0.051-1.592-0.051c-1.737,0-3.454,0.521-5.101,1.557
			c-1.344,0.852-2.547,2.188-3.603,3.979v-4.5h-5.818v31.036h5.818v-15.754c0-3.147,0.743-5.547,2.221-7.129
			c1.461-1.583,3.407-2.378,5.783-2.378c0.631,0,1.22,0.045,1.731,0.135c0.511,0.096,1.09,0.236,1.703,0.418l0.528,0.165v-7.078
			l-0.28-0.089C222.373,189.188,221.916,189.086,221.491,189.042z"/>
		<path style="fill:#231F20;" d="M251.668,193.941c-1.281-1.518-2.934-2.739-4.898-3.622c-1.964-0.883-4.271-1.328-6.849-1.328
			c-2.614,0-4.926,0.446-6.878,1.328c-1.95,0.883-3.591,2.104-4.872,3.622c-1.282,1.52-2.259,3.291-2.906,5.274
			c-0.645,1.976-0.973,4.104-0.973,6.329c0,2.218,0.325,4.354,0.973,6.33c0.647,1.975,1.624,3.754,2.903,5.261
			c1.281,1.524,2.925,2.739,4.875,3.634c1.95,0.883,4.258,1.333,6.878,1.333c2.581,0,4.892-0.453,6.849-1.333
			c1.971-0.89,3.617-2.109,4.898-3.634c1.283-1.505,2.257-3.283,2.904-5.261c0.648-1.983,0.978-4.112,0.978-6.33
			c0-2.226-0.329-4.354-0.978-6.329C253.925,197.233,252.952,195.46,251.668,193.941z M248.91,209.536
			c-0.335,1.29-0.885,2.453-1.631,3.463c-0.744,1.005-1.736,1.837-2.943,2.48c-1.205,0.641-2.688,0.964-4.414,0.964
			c-1.729,0-3.209-0.323-4.417-0.964c-1.199-0.644-2.19-1.476-2.935-2.48c-0.757-1.01-1.302-2.173-1.631-3.463
			c-0.344-1.309-0.515-2.649-0.515-3.99c0-1.34,0.171-2.689,0.515-3.991c0.329-1.29,0.885-2.459,1.631-3.469
			c0.744-0.999,1.735-1.831,2.935-2.478c1.214-0.636,2.696-0.96,4.417-0.96c1.727,0,3.208,0.324,4.414,0.96
			c1.207,0.647,2.198,1.479,2.943,2.478c0.749,1.01,1.296,2.18,1.631,3.469c0.343,1.302,0.507,2.651,0.507,3.991
			C249.417,206.886,249.253,208.227,248.91,209.536z"/>
		<rect x="259.383" y="178.723" style="fill:#231F20;" width="5.827" height="42.339"/>
		<path style="fill:#231F20;" d="M291.798,190.676c-1.221-0.649-2.573-1.099-4.035-1.34c-1.431-0.23-2.843-0.344-4.188-0.344
			c-4.015,0-7.185,0.833-9.453,2.498c-2.294,1.676-3.629,4.493-3.972,8.361l-0.038,0.445h5.548l0.013-0.395
			c0.032-1.074,0.254-1.981,0.669-2.688c0.418-0.712,0.968-1.283,1.646-1.709c0.685-0.427,1.495-0.738,2.409-0.928
			c1.824-0.356,3.952-0.35,5.801-0.077c0.87,0.127,1.646,0.356,2.3,0.679c0.641,0.32,1.125,0.751,1.488,1.349
			c0.355,0.584,0.541,1.366,0.541,2.325c0,1.194-0.33,1.963-1.018,2.35c-0.769,0.44-1.831,0.732-3.179,0.871l-5.712,0.694
			c-2.122,0.279-3.931,0.673-5.389,1.176c-1.474,0.521-2.694,1.174-3.603,1.949c-0.94,0.797-1.622,1.768-2.027,2.88
			c-0.394,1.102-0.596,2.375-0.596,3.806c0,1.029,0.157,2.105,0.462,3.195c0.312,1.111,0.89,2.153,1.716,3.103
			c0.819,0.939,1.964,1.727,3.4,2.325c1.429,0.594,3.274,0.899,5.49,0.899c1.086,0,2.211-0.112,3.327-0.328
			c1.125-0.215,2.212-0.543,3.24-0.975c1.018-0.439,1.976-0.973,2.835-1.606c0.565-0.417,1.067-0.885,1.495-1.372l0.015,3.552
			l4.751,0.039c0.102,0,0.202-0.015,0.312-0.015v-23.408c0-1.849-0.402-3.381-1.194-4.557
			C294.066,192.271,293.037,191.343,291.798,190.676z M290.521,208.716c0,1.192-0.261,2.295-0.773,3.268
			c-0.521,0.984-1.238,1.849-2.147,2.553c-0.909,0.713-1.982,1.279-3.197,1.667c-1.226,0.387-2.528,0.586-3.882,0.586
			c-1.735,0-3.14-0.417-4.177-1.237c-1.027-0.807-1.524-1.84-1.524-3.142c0-1.487,0.425-2.509,1.303-3.127
			c0.929-0.655,2.374-1.138,4.302-1.437l5.657-0.801c1.422-0.196,2.528-0.418,3.304-0.687c0.433-0.14,0.814-0.325,1.14-0.551
			L290.521,208.716L290.521,208.716z"/>
		<path style="fill:#231F20;" d="M326.265,191.597c-1.027-0.903-2.255-1.571-3.66-1.99c-1.385-0.419-2.897-0.617-4.492-0.617
			c-1.951,0-3.896,0.413-5.803,1.239c-1.599,0.707-2.999,1.882-4.153,3.528v-3.731h-5.82v31.036h5.82v-17.831
			c0-1.437,0.223-2.696,0.674-3.762c0.438-1.056,1.049-1.945,1.8-2.657c0.762-0.712,1.646-1.251,2.62-1.613
			c0.983-0.369,2.032-0.553,3.112-0.553c2.581,0,4.473,0.571,5.621,1.703c1.146,1.125,1.729,2.765,1.729,4.869v19.843h5.821v-20.995
			c0-1.925-0.29-3.61-0.856-5.001C328.096,193.663,327.288,192.499,326.265,191.597z"/>
		<path style="fill:#231F20;" d="M356.005,209.491c-0.545,2.449-1.424,4.239-2.606,5.327c-1.169,1.079-2.865,1.625-5.053,1.625
			c-1.54,0-2.871-0.278-3.971-0.826c-1.107-0.544-2.034-1.302-2.739-2.241c-0.713-0.954-1.258-2.107-1.607-3.438
			c-0.357-1.341-0.542-2.823-0.542-4.392c0-1.577,0.185-3.058,0.542-4.398c0.35-1.321,0.895-2.478,1.607-3.43
			c0.714-0.948,1.632-1.703,2.739-2.25c1.102-0.542,2.433-0.82,3.971-0.82c2.225,0,3.991,0.533,5.243,1.577
			c1.249,1.048,2.025,2.515,2.313,4.363l0.052,0.344h6.126l-0.068-0.464c-0.27-1.924-0.813-3.627-1.622-5.045
			c-0.813-1.424-1.848-2.63-3.089-3.584c-1.234-0.946-2.663-1.671-4.266-2.141c-1.584-0.47-3.277-0.706-5.045-0.706
			c-2.422,0-4.571,0.446-6.38,1.334c-1.823,0.889-3.357,2.109-4.571,3.629c-1.214,1.512-2.143,3.304-2.757,5.324
			c-0.61,2.008-0.915,4.175-0.915,6.437c0,1.99,0.268,3.972,0.794,5.905c0.529,1.941,1.374,3.715,2.517,5.269
			c1.145,1.562,2.682,2.842,4.543,3.78c1.869,0.954,4.163,1.437,6.826,1.437c1.729,0,3.342-0.216,4.81-0.625
			c1.481-0.417,2.842-1.137,4.035-2.128c1.176-0.988,2.225-2.295,3.095-3.863c0.864-1.557,1.578-3.514,2.123-5.814l0.114-0.5h-6.145
			L356.005,209.491z"/>
		<path style="fill:#231F20;" d="M390.205,192.969c-1.386-1.377-2.969-2.401-4.704-3.038c-1.721-0.629-3.493-0.939-5.273-0.939
			c-2.611,0-4.929,0.446-6.877,1.328c-1.942,0.883-3.582,2.104-4.867,3.622c-1.282,1.52-2.255,3.291-2.903,5.275
			c-0.648,1.975-0.975,4.103-0.975,6.329c0,2.218,0.325,4.354,0.975,6.33c0.648,1.975,1.621,3.754,2.903,5.261
			c1.278,1.524,2.918,2.739,4.867,3.634c1.945,0.884,4.259,1.334,6.877,1.334c1.342,0,2.703-0.202,4.074-0.595
			c1.366-0.396,2.688-1.023,3.928-1.877c1.227-0.846,2.368-1.944,3.388-3.252c1.02-1.315,1.867-2.919,2.516-4.759l0.192-0.547
			h-6.158l-0.103,0.261c-0.412,1.022-0.939,1.867-1.569,2.517c-0.635,0.669-1.328,1.194-2.047,1.568
			c-0.73,0.383-1.495,0.649-2.271,0.804c-0.781,0.148-1.519,0.222-2.192,0.222c-1.057,0-2.129-0.195-3.195-0.585
			c-1.062-0.389-2.039-0.967-2.889-1.735c-0.864-0.774-1.589-1.733-2.161-2.88c-0.521-1.028-0.845-2.225-0.974-3.565h24.09v-1.155
			c0-3.146-0.432-5.881-1.278-8.103C392.728,196.186,391.591,194.348,390.205,192.969z M370.956,202.368
			c0.202-1.113,0.56-2.116,1.049-2.999c0.554-1.011,1.245-1.876,2.061-2.574c0.806-0.694,1.728-1.233,2.732-1.595
			c0.997-0.369,2.07-0.553,3.189-0.553c2.249,0,4.2,0.7,5.783,2.091c1.494,1.302,2.465,3.202,2.897,5.629H370.956z"/>
		<path style="fill:#231F20;" d="M416.354,189.353c-0.509-0.165-0.962-0.267-1.392-0.312c-0.42-0.039-0.953-0.051-1.589-0.051
			c-1.742,0-3.456,0.521-5.102,1.557c-1.339,0.852-2.546,2.188-3.604,3.979v-4.5h-5.82v31.036h5.82v-15.754
			c0-3.147,0.752-5.547,2.218-7.129c1.468-1.583,3.412-2.378,5.784-2.378c0.64,0,1.221,0.045,1.735,0.135
			c0.507,0.096,1.087,0.236,1.704,0.418l0.526,0.165v-7.078L416.354,189.353z"/>
	</g>
</g>
<g>
</g>
<g>
</g>
<g>
</g>
<g>
</g>
<g>
</g>
<g>
</g>
<g>
</g>
<g>
</g>
<g>
</g>
<g>
</g>
<g>
</g>
<g>
</g>
<g>
</g>
<g>
</g>
<g>
</g>
</svg>
